<?xml version="1.0" standalone="no"?><!DOCTYPE svg PUBLIC "-//W3C//DTD SVG 1.1//EN" "http://www.w3.org/Graphics/SVG/1.1/DTD/svg11.dtd"><svg t="1780381067941" class="icon" viewBox="0 0 1087 1024" version="1.1" xmlns="http://www.w3.org/2000/svg" p-id="5884" xmlns:xlink="http://www.w3.org/1999/xlink" width="212.3046875" height="200"><path d="M550.392775 1.599001c100.992879 7.227483 191.304435 42.341537 271.830106 103.16752 16.181886 12.216365 31.660212 25.26421 45.795378 39.975016 3.965522 4.221362 6.651843 4.477202 10.873204 0 13.623485-14.135166 27.758651-28.014491 41.574016-41.893817 3.198001-3.198001 5.628482-6.907683 11.768645-5.052842 6.076202 2.174641 5.820362 6.396002 6.076202 10.937164 2.942161 44.516177 6.140162 89.032355 9.082324 133.548533 1.2792 21.042848 2.942161 41.829856 3.965522 62.872704 0.57564 10.681324-2.878201 13.815365-13.303686 13.047845l-195.269956-12.792005c-5.116802-0.25584-9.338164-0.25584-11.704685-6.651842-2.430481-6.396002 1.854841-8.570643 4.797002-11.512805 13.815365-13.815365 27.374891-27.950531 41.765897-41.574016 4.541162-4.221362 4.285322-6.651843 0-10.873204-55.645222-53.086821-120.884447-87.945034-196.868957-100.4812-136.426733-22.641849-254.177139 15.990006-349.861337 116.215366-60.442224 63.384385-93.445597 140.136415-101.184759 227.825609-0.57564 5.628482-1.08732 11.193004-1.343161 16.821486 0 16.501686 0 16.501686-16.821487 16.501687-33.515053 0-67.158026-0.25584-100.928919 0.25584-7.995003 0-10.681324-1.2792-10.425484-10.105684 5.372642-148.707058 62.361024-273.429107 172.947908-372.886946C250.164418 59.738663 340.987653 19.188007 443.323693 4.605122c9.594004-1.343161 19.699688-0.83148 28.782011-4.541162h58.075703c6.651843 2.686321 13.559525-0.25584 20.211368 1.599001zM472.361544 1023.3604c-11.193004-4.477202-23.217489-3.709681-34.922173-5.308682a503.877077 503.877077 0 0 1-278.162149-136.490694c-7.163523-6.907683-10.873204-7.163523-17.589007 0.3198-11.960525 13.303685-25.32817 25.58401-37.800375 38.376015-3.453841 3.453841-5.884322 7.419363-12.536164 5.052842-6.651843-2.430481-5.628482-7.739163-5.884323-12.280324-3.198001-43.684697-5.820362-87.625234-8.762523-131.373892-1.343161-21.362648-2.942161-42.661337-4.029482-63.704185-0.51168-9.594004 3.198001-13.303685 12.792005-12.792005 65.878826 4.285322 131.629731 8.506683 197.188757 13.047846 4.477202 0.25584 7.995003 0.83148 10.105684 5.884322 2.430481 5.308682-0.25584 7.675203-3.453841 10.873204-14.071205 14.199126-27.950531 28.590131-42.661337 42.405497-4.477202 4.541162-4.797002 6.907683 0 11.512804 55.453342 52.44722 120.436727 87.369394 195.845597 100.161399 136.426733 22.897689 254.177139-15.478326 350.117177-115.639725 61.017864-63.960025 94.277077-141.287695 101.760399-229.74441 0.25584-4.285322 1.08732-8.506683 1.279201-12.792005 1.15128-18.932167 1.15128-18.932167 20.275328-18.932167h107.900562v39.975016c-2.110681 22.386009-3.453841 44.772017-8.506683 66.902186a514.238601 514.238601 0 0 1-111.610244 225.970768 510.209119 510.209119 0 0 1-207.038601 147.108057c-36.457214 14.135166-74.065709 24.304809-112.953404 29.101812-11.704685 1.2792-23.665209 0.51168-35.433854 2.366521H472.361544z" fill="#707070" p-id="5885"></path><path d="M550.392775 1.599001c-6.907683 0.51168-13.815365 1.2792-20.211368-1.599001h19.955528c0 0.51168 0 1.08732 0.25584 1.599001zM725.963043 365.659463c-80.461711-128.23985-251.746658-158.876702-368.409743-65.559026C252.466979 383.76015 225.028128 535.665209 294.296835 650.793254c63.704185 106.301562 186.507433 152.224859 300.548157 112.441724 102.33604-35.689694 172.883948-138.025734 173.139788-260.892942-0.51168-42.853217-14.071205-91.910556-42.085697-136.682573z m-175.826108 301.379638c-7.163523 1.599001-7.995003 4.285322-7.995003 10.425484 0 8.762523 4.029482 20.787008-1.599001 25.83985-4.797002 4.221362-16.501686 1.02336-25.00837 1.2792H514.447241c-10.425484 0-23.473329 3.773641-30.061212-1.2792-6.396002-4.797002-1.662961-18.676327-1.918801-28.526171 0-5.628482-2.366521-6.140162-6.907682-7.227483-39.975016-8.506683-70.611868-42.597377-73.554029-81.549032-0.51168-6.651843 0.51168-9.594004 7.995003-9.018364 14.710806 0.51168 29.293691 0.25584 43.940537 0 5.116802 0 7.483323 1.02336 8.570644 6.651843 2.878201 15.478326 15.414366 25.58401 31.148532 26.09569 12.280325 0.25584 24.75253 0.57564 37.032854 0A34.026733 34.026733 0 0 0 563.9523 575.640225a34.154653 34.154653 0 0 0-33.770893-33.579013c-20.019488-0.83148-39.975016 2.110681-59.674703-3.453842a94.341037 94.341037 0 0 1-69.588507-92.486196 93.893317 93.893317 0 0 1 73.554028-89.288195c6.907683-1.599001 8.314803-3.965522 8.314804-10.105684 0-8.826483-4.029482-22.386009 1.2792-25.58401 7.163523-4.541162 19.188007-1.08732 29.037851-1.08732 9.594004 0.25584 22.130169-4.477202 27.694691 1.343161 4.797002 5.308682 1.918801 17.908807 1.343161 26.86321-0.25584 6.204122 2.110681 7.483323 7.483323 8.570643 40.486696 9.338164 70.867708 44.772017 72.722548 83.659713 0.25584 5.884322-0.25584 8.314803-7.227483 7.995003a876.380262 876.380262 0 0 0-45.795378 0c-4.797002 0-6.396002-1.2792-7.483323-6.396002a32.811493 32.811493 0 0 0-31.980012-27.438851 404.419238 404.419238 0 0 0-35.945534 0 34.026733 34.026733 0 0 0-33.259213 34.154653 34.602374 34.602374 0 0 0 34.090693 33.579013c17.013367 0.51168 33.834853-1.343161 50.84822 1.599001 44.516177 7.675203 76.75203 45.027858 78.031231 90.567395 1.407121 42.917177-30.061212 83.148032-73.490069 92.486197z" fill="#707070" p-id="5886"></path></svg>